<svg xmlns="http://www.w3.org/2000/svg" width="4096" height="4096"><path fill="#d3b48d" d="M2868 2725h569v96l-37 1v84h-18l-3.395-6.605q-1.637-3.183-3.276-6.365l-2.267-4.408a5856 5856 0 0 0-3.269-6.352l-1.014-1.977c-1.427-2.766-2.887-5.47-4.516-8.122C3363 2870 3363 2870 3363 2868l-25 1-3.176 6.57-8.25 17.063-.947 1.96A978 978 0 0 1 3320 2906h-21v-84l-57-1v476h208v209h-280l-15-28c-4.897-8.687-4.897-8.687-9.82-17.36-3.31-5.836-6.501-11.732-9.68-17.64a1106 1106 0 0 0-12.937-23.375c-5.325-9.352-10.46-18.797-15.543-28.282-5.506-10.289-5.506-10.289-11.204-20.47-2.523-4.424-4.812-8.906-7.015-13.498-4.773-11.15-4.773-11.15-12.892-19.578-4.431-1.262-8.429-.857-12.909.203l-.294 2.05c-.869 3.63-2.373 6.814-3.995 10.153l-1.015 2.127q-1.086 2.273-2.178 4.543c-1.959 4.073-3.898 8.155-5.838 12.236l-1.201 2.525c-3.756 7.912-7.38 15.881-10.979 23.866-5.978 13.247-12.14 26.4-18.366 39.533-5.621 11.86-11.142 23.762-16.623 35.687a6292 6292 0 0 1-7.76 16.767l-1.733 3.736-2.4 5.175-1.388 2.99A313 313 0 0 1 2986 3506h-103c10.225-22.723 10.225-22.723 15.375-33.687a13016 13016 0 0 0 4.58-9.787c3.775-8.077 7.516-16.17 11.26-24.261a7937 7937 0 0 1 18.66-40.077 7923 7923 0 0 0 17.404-37.32q2.978-6.426 5.97-12.847c15.396-33.07 30.448-66.284 45.008-99.73 3.812-8.752 7.654-17.49 11.493-26.229l6.936-15.792 10.198-23.227 3.328-7.58a69826 69826 0 0 0 15.636-35.633l2.414-5.504 3.336-7.603 1.004-2.292c2.284-5.203 2.284-5.203 3.398-7.431h-191v-102h301l-1-43h-300v-97h301v-54h-301zM1396 589h280a10884 10884 0 0 1 21.777 39.344l1.057 1.916q3.642 6.606 7.295 13.209l4.059 7.343 1.01 1.828c4.54 8.222 9.033 16.467 13.49 24.735 4.676 8.676 9.485 17.268 14.363 25.833a846 846 0 0 1 10.283 18.697 1770 1770 0 0 0 5.33 9.857 289 289 0 0 1 6.172 12.07c3.61 8.231 3.61 8.231 9.997 14.052 4.12 1.049 8.015.813 12.167.116l.802-2.571c1.246-3.567 2.74-6.883 4.366-10.292l.943-1.988q1.008-2.123 2.02-4.243c1.821-3.823 3.631-7.651 5.44-11.48.37-.787.742-1.573 1.125-2.384 3.7-7.853 7.293-15.755 10.867-23.667A2247 2247 0 0 1 1823.5 669a2352 2352 0 0 0 15.063-32.625 3230 3230 0 0 1 14.373-31.36q.934-2.003 1.864-4.008 1.281-2.755 2.567-5.507l1.472-3.156C1860 590 1860 590 1861 589a56 56 0 0 1 4.03-.12l2.63-.004 2.909.01h3.044c3.339 0 6.677.009 10.016.016l6.923.005q9.132.006 18.264.024 9.31.014 18.62.02 18.282.016 36.564.049-2.111 4.709-4.225 9.416l-1.19 2.653c-3.646 8.116-7.437 16.159-11.269 24.189a6787 6787 0 0 0-5.902 12.418l-1.171 2.468c-4.59 9.683-9.066 19.417-13.539 29.155-3.57 7.763-7.172 15.512-10.766 23.264l-4.926 10.625-1.252 2.699q-4.342 9.367-8.678 18.738l-6.036 13.04c-3.952 8.54-7.911 17.077-11.94 25.581-8.94 18.88-17.405 37.944-25.755 57.093-3.824 8.76-7.71 17.493-11.601 26.223a6316 6316 0 0 0-18.956 43.045c-3.835 8.782-7.69 17.556-11.544 26.33l-1.98 4.509-2.067 4.706Q1799.6 951.576 1788 978l191 1v102h-302v43h302v96l-301 1-1 53h302v96h-570v-96h38v-85h17c6.922 12.552 13.687 25.13 20 38l25 1 2-6a316 316 0 0 1 3.441-7.55l.994-2.12a2248 2248 0 0 1 2.07-4.4q1.592-3.377 3.173-6.76l2.013-4.283.96-2.049c2.233-4.722 2.233-4.722 3.349-5.838h20v85h58l-1-475-208-1zm-724 94h565v688c-3.804-2.282-5.913-3.697-8.812-6.75-3.186-3.268-6.473-6.302-9.93-9.277-2.752-2.405-5.444-4.873-8.133-7.348A1184 1184 0 0 0 1199 1337.5a1455 1455 0 0 1-12.54-11.414q-4.705-4.32-9.46-8.586a1455 1455 0 0 1-12.54-11.414c-3.938-3.616-7.91-7.195-11.89-10.766a1248 1248 0 0 1-8.695-7.945c-3.237-2.977-6.486-5.935-9.812-8.812-5.24-4.546-10.295-9.294-15.383-14.008-8.721-8.093-8.721-8.093-17.618-15.993-4.131-3.581-8.131-7.3-12.142-11.017-4.097-3.794-8.234-7.54-12.393-11.268a1184 1184 0 0 1-8.527-7.777 1270 1270 0 0 0-11-10 1455 1455 0 0 1-12.54-11.414q-4.705-4.32-9.46-8.586c-3.688-3.31-7.35-6.647-11-10-6.088-5.592-12.228-11.123-18.387-16.637-3.699-3.318-7.386-6.645-11.027-10.027l-1.77-1.643a1369 1369 0 0 1-3.438-3.208c-4.302-4-6.768-6.233-12.713-6.247l-3.375-.022-3.723.006c-1.952-.01-1.952-.01-3.943-.018q-5.429-.022-10.857-.02c-3.9-.004-7.8-.02-11.7-.033q-10.137-.034-20.276-.048c-9.773-.014-19.546-.04-29.318-.068a52151 52151 0 0 0-47.564-.113q-23.104-.045-46.21-.105l-2.876-.007-14.283-.037q-59.27-.155-118.54-.273a1393 1393 0 0 1-1.14-34.157c-.113-5.294-.267-10.58-.52-15.87-1.095-23.525-1.61-42.214 14.816-60.39 8.705-9.174 18.96-16.798 29.4-23.857 5.791-4.091 10.72-8.786 15.264-14.222 15.473-17.615 15.473-17.615 26.074-18.545 7.573.11 13.401 1.146 19.043 6.541A115 115 0 0 1 771 985q1.817 2.116 3.688 4.188l1.667 1.949c2.189 2.48 4.54 4.77 6.899 7.086 1.81 1.843 3.5 3.755 5.183 5.715A134 134 0 0 0 796 1012c3.25 3.2 6.247 6.542 9.219 10 2.484 2.789 5.148 5.377 7.808 7.996 2.546 2.586 4.893 5.32 7.258 8.07 2.21 2.491 4.57 4.801 6.945 7.133 2.552 2.597 4.919 5.34 7.29 8.102A74 74 0 0 0 838 1057l17 1V930c45.31 0 45.31 0 58.474 10.972 3.823 3.07 7.909 5.709 11.994 8.413 5.226 3.467 10.375 7.046 15.532 10.615l2.422 1.668c11.343 7.823 22.306 16.116 33.224 24.521q3.09 2.375 6.19 4.737a579 579 0 0 1 17.5 13.875 700 700 0 0 0 5.266 4.304c11.446 9.269 22.49 19.003 33.398 28.895l2.305 2.059c13.488 12.05 26.478 24.56 39.25 37.366a4401 4401 0 0 0 7.41 7.403l4.785 4.79 2.2 2.193c3.97 3.987 7.769 8.061 11.418 12.343 1.792 2.027 3.719 3.933 5.632 5.846h42V886l-482-1z"/><path fill="#d4b58e" d="M2870 1790h296v311h186v-141h85v399h-85v-157h-186v323h-289v-150h198v-41h-91v-91h91v-41h-198v-101h198v-103h-158l-1-24h159v-46h-205z"/><path fill="#d3b48d" d="M1681 2382h288v149h-198v41h92v92h-92v40h198v101l-197 1v102l158 1v23l-158 1v45l204 1v137h-295v-311h-187v142h-85v-399h85v156h187zm477-1750c4.036 2.421 7.653 4.96 11.313 7.875l1.827 1.445c5.364 4.253 10.665 8.582 15.967 12.912 5.114 4.165 10.32 8.187 15.565 12.186 3.755 2.888 7.414 5.892 11.078 8.894a549 549 0 0 0 16.688 13.125c6.63 5.019 13.072 10.226 19.466 15.541 5.17 4.288 10.44 8.398 15.787 12.463 3.835 2.94 7.57 6 11.309 9.059 5.811 4.753 11.701 9.367 17.672 13.918 3.755 2.888 7.414 5.892 11.078 8.894a549 549 0 0 0 16.688 13.125c6.63 5.019 13.072 10.226 19.466 15.541 5.17 4.288 10.44 8.398 15.787 12.463 3.835 2.94 7.57 6 11.309 9.059 5.755 4.707 11.544 9.332 17.54 13.73 2.422 1.85 4.474 3.796 6.524 6.047 8.013 8.329 15.196 10.918 26.705 11.324 4.826.09 9.64.067 14.465-.008 3.818-.044 7.634-.012 11.452.01 6.596.028 13.19.009 19.787-.043 9.536-.075 19.071-.078 28.608-.064 15.476.021 30.951-.015 46.427-.088a10560 10560 0 0 1 47.881-.122l13.965-.005A28577 28577 0 0 0 2718 829c.232 10.014.41 20.027.518 30.044.052 4.651.123 9.301.236 13.952.11 4.493.169 8.985.195 13.48q.027 2.565.108 5.127c.407 13.373.407 13.373-3.243 18.419-2.498 2.27-4.984 4.146-7.814 5.978l-3.031 2.531-2.469 1.969a234 234 0 0 0-10.5 9 231 231 0 0 1-10.187 8.75c-4.452 3.605-8.805 7.304-13.126 11.063l-1.902 1.654-3.84 3.343a2501 2501 0 0 1-9.695 8.378l-1.77 1.53c-7.642 6.566-13.33 6.855-23.18 6.52-7.346-.671-11.165-4.587-15.726-9.967-3.034-3.414-6.47-6.426-9.824-9.521a6815 6815 0 0 0-28.559-26.809l-1.881-1.76a596 596 0 0 0-3.74-3.454c-3.216-2.955-6.289-5.965-9.246-9.18l-1.878-1.957a86 86 0 0 1-3.382-3.737c-6.883-7.03-11.94-4.699-23.064-5.353v110c-43.244 0-43.244 0-61.875-12.879-4.143-2.812-8.44-5.311-12.765-7.83-20.346-11.889-39.998-24.874-59.36-38.291l-2.275-1.569c-23.888-16.492-46.8-34.539-68.896-53.354a420 420 0 0 0-10.142-8.327c-6.24-5.073-12.024-10.614-17.859-16.14-3.907-3.699-7.887-7.303-11.91-10.876-1.688-1.526-3.309-3.125-4.918-4.734l-42-1v193h471v172h-552z"/><path fill="#d4b58e" d="M2416 2721h288v149l-197 1v40h90c1.637 3.273 1.129 6.892 1.114 10.489v2.704q-.002 4.345-.016 8.69l-.003 5.355c-.006 6.629-.02 13.258-.032 19.887L2598 3003h-92v41h198v101h-198v103h159v24h-159v46h205v138h-295v-311h-289v-101l288-1zM1387.55 126.867l2.894.007 3.057-.004c3.426-.004 6.851 0 10.277.003l7.388-.005q8.067-.004 16.133 0 11.994.004 23.99-.002 21.417-.007 42.835-.002 18.742.004 37.485.002h2.507l10.075-.001q47.3-.004 94.598.005 42.063.007 84.125 0a351990 351990 0 0 1 104.477-.004h2.502q18.735.002 37.47-.002 21.292-.004 42.586.003 11.931.004 23.862 0 8.883-.003 17.767.004 3.613.001 7.226-.002 4.875-.004 9.752.005l2.894-.007c6.436.019 6.436.019 7.55 1.133v101l-326 1-1 54h327v102l-326 1v57l326 1v102h-591V445h186v-59h-71V284h71v-55h-194l-.063-50.438-.027-15.95c-.005-6.407-.005-6.407-.005-9.402q-.004-3.152-.01-6.303a3948 3948 0 0 1-.009-9.522l-.01-2.856c.012-7.57.11-7.64 7.674-7.662"/><path fill="#d3b48d" d="M1409 1415h560v230h-135v2l1.778.802c2.3 1.24 3.886 2.563 5.769 4.366l2.036 1.935 2.167 2.084 4.594 4.372 2.351 2.245c3.5 3.335 7.026 6.642 10.555 9.946l2.007 1.881a2215 2215 0 0 0 13.885 12.886c7.294 6.72 14.53 13.502 21.774 20.274a4007 4007 0 0 0 21.17 19.67c4.797 4.422 9.564 8.875 14.33 13.33q5.99 5.594 12.022 11.147a2146 2146 0 0 1 16.59 15.469 965 965 0 0 0 11.62 10.767 890 890 0 0 0 3.368 3.058c2.364 2.16 4.195 4.085 5.984 6.768a6582 6582 0 0 1-52.575.961c-8.139.117-16.277.255-24.414.442q-10.647.246-21.293.363c-3.756.042-7.509.103-11.263.212-25.913.73-25.913.73-32.646-4.796-2.201-2.218-4.014-4.63-5.809-7.182a93 93 0 0 0-3.926-3.645q-1.694-1.582-3.387-3.168l-3.832-3.582-1.932-1.807q-4.71-4.401-9.423-8.798-5.663-5.283-11.32-10.57a3455 3455 0 0 0-17.68-16.43c-7.841-7.225-15.627-14.51-23.416-21.791A3770 3770 0 0 0 1743.5 1690c-9.156-8.437-18.252-16.94-27.33-25.46a348 348 0 0 0-3.857-3.54c-2.855-2.594-5.329-5.02-7.68-8.102-2.619-3.216-4.74-5.462-8.633-6.898-4.97-.506-9.912-.39-14.898-.258q-2.052.03-4.105.057-5 .073-9.997.201l.003 2.106q.033 25.323.049 50.648.007 12.246.023 24.492.015 10.67.02 21.34 0 5.654.01 11.307c.009 4.2.009 8.4.009 12.6l.01 3.815-.004 3.447.003 3.014C1667 1781 1667 1781 1666 1782a59 59 0 0 1-4.137.123l-2.72.006-3.02-.009-3.175.003q-5.326.001-10.653-.01h-7.72q-9.323.001-18.644-.01-10.778-.01-21.554-.008c-18.98-.006-37.96-.02-56.94-.033L1409 1782zm257 94c-.101 3.09-.14 6.159-.133 9.25l-.003 2.813q0 2.952.006 5.902c.005 3.022 0 6.044-.007 9.066q0 2.86.004 5.719l-.006 2.759c-.4 4.068-.4 4.068 1.139 7.491 2.82.098 5.614.13 8.434.12l2.713.003q4.535.001 9.07-.01l6.473.001q8.817-.001 17.634-.013 9.202-.007 18.406-.008 17.44-.005 34.88-.021 19.85-.015 39.7-.022 40.845-.016 81.69-.05v-44q-42.806-.035-85.61-.052-19.875-.007-39.748-.023-17.314-.015-34.63-.02-9.174 0-18.348-.01-8.625-.01-17.249-.008-3.176 0-6.35-.006-4.316-.007-8.63-.001l-2.574-.01c-3.734-.35-3.734-.35-6.861 1.13m1193 2057c17.82-.21 35.64-.37 53.46-.466 8.276-.047 16.55-.11 24.826-.213q10.822-.137 21.647-.168c3.818-.011 7.635-.039 11.453-.105a518 518 0 0 1 10.8-.066 245 245 0 0 0 5.812-.102c6.742.071 10.496.884 15.604 5.44A221 221 0 0 1 3007 3575a318 318 0 0 0 4.168 3.887l4.02 3.8 4.44 4.192 2.22 2.094c3.25 3.06 6.512 6.108 9.777 9.152l1.85 1.725 3.682 3.432q4.674 4.358 9.343 8.718l16.87 15.746q4.728 4.41 9.45 8.824a3298 3298 0 0 0 17.617 16.367c8.262 7.61 16.438 15.31 24.625 23 26.718 26.68 26.718 26.68 64.938 34.063v-137h257v367l-560-1v-229h135l-5-5-2.613-2.648c-4.713-4.76-9.461-9.391-14.559-13.743-2.436-2.144-4.683-4.451-6.954-6.766-1.807-1.777-3.668-3.438-5.589-5.09-4.218-3.667-8.292-7.47-12.347-11.316l-6.754-6.378c-3.26-3.073-6.533-6.13-9.809-9.184l-1.85-1.725-3.682-3.432q-4.674-4.358-9.343-8.718l-3.75-3.5-39.377-36.752-3.73-3.48a4517 4517 0 0 1-9.674-9.05c-.665-.622-1.33-1.244-2.014-1.886a2606 2606 0 0 1-3.77-3.539 242 242 0 0 0-10.9-9.611L2859 3567zm101 237v43c1.832 1.832 4.392 1.125 6.83 1.134l2.56-.007 2.698.005c3.007.004 6.014 0 9.021-.003l6.44.006q8.77.004 17.54 0c6.104-.003 12.208 0 18.312 0q15.38.003 30.76-.005a38622 38622 0 0 1 35.617.002q15.26.007 30.52.003 9.127-.003 18.254.001 8.579.004 17.158-.005l6.316.002q4.293.002 8.584-.006l2.56.007c3.718.344 3.718.344 6.83-1.134v-43zM676 1415h290v205h2l.707-1.703c1.612-2.864 3.612-4.77 5.98-7.047a175 175 0 0 0 10.668-11.387c2.188-2.478 4.538-4.767 6.895-7.082 1.832-1.865 3.544-3.8 5.25-5.781 2.753-3.196 5.647-6.172 8.656-9.125 1.777-1.807 3.438-3.668 5.09-5.59 3.668-4.218 7.47-8.292 11.317-12.348l4.238-4.488 2.131-2.256q4.673-4.96 9.318-9.943l1.743-1.868q5.489-5.894 10.945-11.82c5.716-6.206 11.487-12.36 17.261-18.511 8.46-9.013 16.89-18.052 25.267-27.142 5.557-6.026 11.155-12.013 16.752-18.002q5.26-5.63 10.514-11.264 4.517-4.844 9.05-9.674c.622-.665 1.244-1.33 1.886-2.014q1.767-1.887 3.539-3.77c3.714-3.966 7.29-8.031 10.793-12.185 4.08.586 6.9 1.902 10.41 4.035l3.205 1.928 1.699 1.035c3.02 1.84 6.057 3.654 9.092 5.47l1.903 1.143c6.532 3.91 13.135 7.69 19.754 11.451l10.467 5.959a4102 4102 0 0 1 17.158 9.854l2.998 1.727a194 194 0 0 1 5.768 3.462c2.55 1.504 4.991 2.436 7.818 3.299 5.22 1.857 9.45 4.048 12.728 8.637 3.136 9.83 2.19 20.964 1.973 31.173-.074 4.35-.048 8.698-.036 13.047.01 7.528-.044 15.054-.14 22.582-.138 10.883-.182 21.765-.203 32.65-.038 17.658-.15 35.316-.312 52.975-.156 17.15-.276 34.3-.348 51.45l-.014 3.205-.064 15.92c-.177 44-.49 87.999-.856 131.998h-101c-1.726-3.452-1.11-7.44-1.082-11.238l.01-2.938q.02-4.904.05-9.807l.03-7.006q.04-9.535.093-19.071.044-8.947.083-17.896.078-17.726.168-35.452a79664 79664 0 0 0 .224-47.234q.203-44.179.424-88.358l-2.403 2.404a1065 1065 0 0 1-5.464 5.428c-5.037 4.984-9.962 9.977-14.559 15.375-2.13 2.426-4.428 4.66-6.732 6.92-1.776 1.806-3.437 3.667-5.088 5.588-3.668 4.218-7.47 8.292-11.316 12.348l-6.379 6.753c-3.073 3.26-6.13 6.533-9.184 9.809l-1.72 1.845-3.428 3.678q-2.644 2.834-5.29 5.665a3263 3263 0 0 0-16.374 17.624c-5.132 5.573-10.31 11.1-15.496 16.621q-5.814 6.193-11.567 12.442c-5.11 5.553-10.268 11.059-15.434 16.559A1725 1725 0 0 0 1006 1752.5a2025 2025 0 0 1-13.375 14.375l-1.894 2.019q-3.847 4.101-7.698 8.198a6397 6397 0 0 0-5.72 6.095l-1.746 1.854-1.641 1.752-1.425 1.516c-1.917 2.16-3.697 4.436-5.501 6.691H848v-275l-54-1v276H676zm1450 829h101v239h2l.738-1.734c1.487-2.67 3.243-4.404 5.45-6.516 3.568-3.483 6.888-7.069 10.132-10.852 2.202-2.488 4.56-4.79 6.93-7.117 1.832-1.865 3.544-3.8 5.25-5.781 2.754-3.196 5.647-6.173 8.657-9.126 1.774-1.804 3.432-3.662 5.081-5.581 3.71-4.265 7.56-8.38 11.45-12.48 4.82-5.1 9.626-10.21 14.374-15.376 5.675-6.169 11.408-12.283 17.145-18.394 5.363-5.713 10.706-11.445 16.05-17.175l5.31-5.684c5.494-5.88 10.98-11.766 16.433-17.684a3762 3762 0 0 1 18.218-19.593q5.261-5.632 10.518-11.268a5895 5895 0 0 1 8.975-9.6l1.86-1.986q1.729-1.848 3.46-3.692c4.413-4.716 8.673-9.528 12.969-14.361h118v275h55v-275h118v380h-290l-1-205c-4.667 4.667-9.022 9.107-13.285 14.066-2.215 2.498-4.584 4.814-6.965 7.153-1.832 1.865-3.544 3.8-5.25 5.781-2.753 3.196-5.647 6.172-8.656 9.125-1.777 1.807-3.438 3.668-5.09 5.59-3.668 4.218-7.47 8.292-11.316 12.347l-6.379 6.754c-3.073 3.26-6.13 6.533-9.184 9.809l-1.72 1.845-3.428 3.678q-2.644 2.834-5.29 5.664a3263 3263 0 0 0-16.374 17.626c-5.132 5.572-10.31 11.099-15.496 16.62q-5.814 6.193-11.567 12.442c-5.11 5.553-10.268 11.059-15.434 16.559A1722 1722 0 0 0 2261 2621.5c-5.099 5.54-10.245 11.035-15.4 16.523A2528 2528 0 0 0 2228 2657c-7.486-3.548-14.64-7.473-21.754-11.704-6.53-3.884-13.1-7.692-19.684-11.483l-3.34-1.925-6.805-3.92q-5.066-2.918-10.128-5.843l-3.354-1.937-6.165-3.562c-10.237-5.91-20.506-11.761-30.77-17.626zm-283 1258h17q6.012 10.994 12 22l1.354 2.482q1.703 3.131 3.396 6.268l1.014 1.856c2.236 4.164 2.236 4.164 2.236 6.394h25l2-6a102 102 0 0 1 1.604-3.71l.91-2.001.963-2.094 1-2.194q1.57-3.44 3.148-6.876l2.14-4.687q2.614-5.721 5.235-11.438h21v85h33v90h-471v202h193v-48h-125v-106h210v154h193v89h-556v-381h423zm-434-1664 153.625-1.375 48.499-.607c19.55-.1 19.55-.1 28.705-.118 6.392-.02 12.78-.1 19.17-.223a955 955 0 0 1 22.13-.173c3.775.013 7.54-.007 11.312-.127 21.7-.657 21.7-.657 28.108 4.789 4.436 5.237 7.48 11 10.259 17.244 1.59 3.454 3.545 6.463 5.672 9.61l1.88 2.938 1.828 2.854 2.03 3.174q6.315 9.857 12.69 19.677c4.429 6.834 8.791 13.71 13.147 20.59A727 727 0 0 0 1779 1933c6.3-5.274 12.3-10.862 18.321-16.446 2.573-2.381 5.156-4.75 7.742-7.117l1.487-1.362 2.966-2.716q3.744-3.428 7.484-6.859l3-2.75 1.5-1.375 28.5-26.125 1.412-1.3a338 338 0 0 1 4.497-4.01c2.074-1.885 3.538-3.549 5.223-5.846 4.666-5.763 8.683-8.265 16.158-9.056 7.398-.417 14.783-.313 22.187-.153 3.752.069 7.503.075 11.255.088 7.087.034 14.172.124 21.259.235 8.075.123 16.15.183 24.225.238 16.596.115 33.19.308 49.784.554-3.742 3.88-7.694 7.294-11.897 10.665l-4.249 3.448-2.28 1.851c-17.754 14.439-34.923 29.464-51.864 44.844a4096 4096 0 0 1-5.955 5.385l-1.495 1.35c-6.236 5.614-12.589 11.04-19.168 16.252-33.702 26.78-48.621 49.171-74.092 87.205l-1 184h-425zm94 117v133h120v-133zm1451-993h424v366l-153 1.563-48.285.69c-19.479.112-19.479.112-28.601.133-6.365.023-12.725.115-19.088.253-7.35.16-14.693.232-22.043.197-3.759-.015-7.506.008-11.262.144-21.564.747-21.564.747-28.457-5.433-4.945-5.993-8.495-12.563-11.805-19.563-1.99-4.068-4.409-7.753-6.959-11.484a959 959 0 0 1-2.613-4.031l-1.378-2.13c-3.078-4.771-6.136-9.556-9.197-14.339l-2.03-3.17a4278 4278 0 0 1-9.638-15.118l-3.321-5.228a2651 2651 0 0 1-4.183-6.601l-1.91-3-1.675-2.644A30.4 30.4 0 0 0 3008 1233l-1.31 1.234c-7.298 6.87-14.598 13.728-22.077 20.403-3.364 3.042-6.676 6.138-9.988 9.238A2212 2212 0 0 1 2955 1282a10665 10665 0 0 0-7.433 6.808c-4.635 4.25-9.256 8.515-13.876 12.782l-1.724 1.487c-2.127 1.973-2.127 1.973-4.088 4.84-3.81 4.835-7.762 8.386-13.897 9.758-8.492.968-17.032.743-25.56.542-3.75-.076-7.498-.082-11.247-.097a1790 1790 0 0 1-21.238-.256c-8.067-.134-16.135-.2-24.203-.26A5766 5766 0 0 1 2782 1317c3.936-4.886 8.077-8.971 12.979-12.874l4.228-3.435 2.262-1.83c17.65-14.302 34.684-29.237 51.512-44.494 8.645-7.816 17.29-15.56 26.432-22.794 33.483-26.58 48.286-48.798 73.587-86.573zm210 117a90 90 0 0 0-.12 5.131l-.004 3.37.01 3.73v3.902q.001 5.31.013 10.623.007 5.546.008 11.09.005 10.509.021 21.017.018 14.193.024 28.388c.01 14.917.03 29.833.048 44.749h120v-133l-59.437-.062-18.8-.028-11.077-.005-7.428-.01q-5.61-.01-11.22-.009l-3.368-.01-3.032.004-2.656-.003c-1.983-.096-1.983-.096-2.982 1.123m185 281h81l-1 413c-3-1.5-4.944-2.62-7.434-4.687l-1.945-1.602-2.059-1.711c-4.963-4.082-9.948-8.108-15.062-12-5.616-4.281-11.093-8.713-16.559-13.184A481 481 0 0 0 3373.5 1730c-5.616-4.281-11.093-8.713-16.559-13.184A481 481 0 0 0 3344.5 1707c-5.616-4.281-11.093-8.713-16.559-13.184A481 481 0 0 0 3315.5 1684c-5.616-4.281-11.093-8.713-16.559-13.184A481 481 0 0 0 3286.5 1661c-5.616-4.281-11.093-8.713-16.559-13.184A481 481 0 0 0 3257.5 1638c-5.616-4.281-11.093-8.713-16.559-13.184-5.128-4.183-10.349-8.221-15.613-12.234-3.755-2.888-7.414-5.892-11.078-8.895-6.36-5.21-12.833-10.253-19.403-15.198l-2.007-1.516-1.989-1.473c-1.851-1.5-1.851-1.5-3.339-3.176-6.414-6.975-10.481-4.635-21.512-5.324v173h-296l-.625-124.937-.276-39.461c-.045-15.892-.045-15.892-.053-23.33q-.017-7.799-.102-15.596c-.07-6.633-.089-13.264-.075-19.896a498 498 0 0 0-.061-7.3c-.29-19.165-.29-19.165 3.388-23.869 2.501-2.288 4.857-3.959 7.804-5.611l3.031-2.531 2.469-1.969a234 234 0 0 0 10.5-9c4.3-3.919 8.76-7.592 13.281-11.25 2.64-2.185 5.186-4.442 7.719-6.75a241 241 0 0 1 13.254-11.215c2.79-2.225 2.79-2.225 5.148-4.851 5.828-5.883 10.951-7.467 19.035-7.684 6.943.125 11.589.982 16.876 5.813a135 135 0 0 1 4.165 4.717c2.837 3.206 6.057 6.017 9.21 8.908q2.053 1.922 4.101 3.851l2.095 1.97 12.825 12.075q5.076 4.782 10.17 9.545l1.884 1.763a586 586 0 0 0 3.718 3.431c3.198 2.937 6.251 5.93 9.19 9.126l1.881 1.959a87 87 0 0 1 3.384 3.739c6.883 7.03 11.941 4.699 23.064 5.353v-110c43.413 0 43.413 0 63.773 13.828 4.006 2.697 8.134 5.141 12.292 7.593 4.692 2.784 9.311 5.683 13.935 8.579l2.767 1.725c13.989 8.74 27.676 17.88 41.233 27.275l2.275 1.569c11.33 7.821 22.285 16.097 33.194 24.491q3.565 2.73 7.152 5.428c7.957 6.004 15.663 12.193 23.176 18.742 2.888 2.515 5.844 4.933 8.828 7.332 5.057 4.105 9.836 8.461 14.61 12.887a274 274 0 0 0 6.702 5.988c3.691 3.2 7.286 6.5 10.876 9.813l1.708 1.576A267 267 0 0 1 3307 1551l42 1zM1417 3132c5.248 3.936 10.383 7.897 15.438 12.063a557 557 0 0 0 17 13.374c6.538 4.949 12.886 10.086 19.187 15.332 4.868 4.036 9.83 7.92 14.875 11.731 6.52 4.926 12.846 10.041 19.125 15.27 4.868 4.035 9.83 7.918 14.875 11.73 6.611 4.995 13.033 10.181 19.404 15.478 5.174 4.292 10.45 8.406 15.803 12.475 3.747 2.872 7.392 5.867 11.043 8.86a549 549 0 0 0 16.688 13.124c6.538 4.949 12.886 10.086 19.187 15.332 4.868 4.036 9.83 7.92 14.875 11.731a458 458 0 0 1 17 13.5 485 485 0 0 0 19.683 15.571 134 134 0 0 1 10.442 8.679c5.637 4.026 5.637 4.026 19.375 3.75v-173h295l.938 124.688.413 39.35c.068 15.874.068 15.874.08 23.308.015 5.186.07 10.37.153 15.556.106 6.623.133 13.242.112 19.866q.006 3.639.092 7.276c.435 19.036.435 19.036-4.991 25.14-3.05 2.871-6.326 5.237-9.844 7.498-3.263 2.202-6.141 4.832-9.078 7.443q-1.735 1.492-3.477 2.977l-1.711 1.461c-3.257 2.775-6.527 5.535-9.795 8.295a2137 2137 0 0 0-11.83 10.08l-1.737 1.49a4407 4407 0 0 0-9.216 7.927l-1.926 1.659q-1.829 1.575-3.653 3.154c-7.744 6.663-13.765 7.127-23.792 6.785-8.852-.924-13.535-6.642-19.075-13.077-2.505-2.826-5.286-5.301-8.1-7.814q-1.602-1.469-3.196-2.945l-1.645-1.52c-6.626-6.145-13.198-12.347-19.784-18.534q-6.007-5.642-12.027-11.273-2.837-2.659-5.665-5.33l-3.496-3.273-1.59-1.508c-7.273-6.776-9.862-5.679-21.16-5.679l-1 109c-44.329 0-44.329 0-60.017-10.963-3.293-2.249-6.666-4.304-10.096-6.334-7.011-4.158-13.954-8.417-20.887-12.703q-2.295-1.408-4.59-2.812c-29.43-18.106-58.012-38.09-84.819-59.896-2.268-1.842-4.555-3.66-6.841-5.48-13.103-10.495-25.948-21.247-38.32-32.597-2.675-2.438-5.375-4.82-8.2-7.082-1.938-1.854-3.146-3.44-4.617-5.64-3.577-4.923-3.577-4.923-12.613-10.493l-41-1v192h-81zM2870 127h557v381h-557v-89h471V217h-193v47h126v107h-211V217h-193z"/><path fill="#d4b58e" d="M671 2854h577v100l-288 1-1 323H671v-150h197v-41h-91v-91h91v-42H671zM3194 574h79v58h157c.03 24.967.03 24.967.063 50.438l.027 15.95c.005 6.407.005 6.407.005 9.402q.003 3.151.01 6.303.01 4.761.009 9.522l.01 2.856c-.01 6.415-.01 6.415-1.124 7.529-2.012.097-4.028.122-6.043.12l-3.981.004-4.41-.01h-4.611q-6.28-.001-12.557-.013c-4.37-.006-8.74-.006-13.109-.008q-12.42-.005-24.84-.021-14.138-.015-28.274-.022-29.087-.016-58.175-.05v55h157v102h-562V789h326v-55h-326V632h326z"/><path fill="#d3b48d" d="M918 3650h299c-1 99-1 99-20 142-5.215 11.906-5.215 11.906-10.422 23.816-3.734 8.548-7.487 17.088-11.24 25.627a13253 13253 0 0 0-17.792 40.656 20386 20386 0 0 1-18.162 41.607q-1.183 2.7-2.363 5.401-1.643 3.758-3.29 7.514l-.967 2.217a221 221 0 0 1-4.879 10.415l-1.075 2.14-.81 1.607c-15.566.843-31.117 1.282-46.703 1.535l-3.863.064c-9.448.157-18.896.296-28.345.43l-7.013.101c-77.688 1.122-155.382 1.035-233.076.995l-2.373-.001a172200 172200 0 0 1-37.357-.024c-29.09-.02-58.18-.062-87.27-.1v-209h238zm26 96c1.285 3.213 2.525 6.163 4.088 9.213l1.236 2.422 1.332 2.592 1.4 2.734q1.47 2.873 2.945 5.744 2.201 4.29 4.397 8.584a2847 2847 0 0 0 16.351 31.441 2308 2308 0 0 1 9.126 17.52 10756 10756 0 0 0 17.657 33.94q2.985 5.715 5.966 11.43l2.985 5.719q3.916 7.495 7.798 15.009l1.633 3.152q1.543 2.98 3.078 5.965a255 255 0 0 0 2.801 5.254c1.207 2.281 1.207 2.281 2.676 5.933 3.363 3.12 5.262 2.703 9.781 2.723a231 231 0 0 0 6.75-.375c7.416-16.288 14.745-32.605 21.83-49.04 4.593-10.653 9.25-21.278 13.92-31.898q10.201-23.2 20.31-46.442a2549 2549 0 0 1 9.448-21.51l1.582-3.557q1.425-3.197 2.865-6.387l1.236-2.775 1.069-2.374c.912-2.128.912-2.128.74-5.017zM2586.786 126.928q17.615.016 35.228.022 35.993.015 71.986.05c1.594 3.188 1.133 6.636 1.12 10.137l.003 2.573q.001 4.305-.01 8.61v6.25q0 8.39-.012 16.781-.007 7.864-.006 15.729c-.006 15.348-.02 30.697-.033 46.045L2695 337h-239v96h-298c0-96.04 0-96.04 25.117-153.197a15148 15148 0 0 0 20.436-46.72 12264 12264 0 0 1 17.567-40.13 8100 8100 0 0 0 12.689-28.996l1.185-2.724q2.81-6.46 5.613-12.924l2.014-4.633.907-2.097c1.708-3.924 3.545-7.758 5.472-11.579q27.004-.367 54.01-.73l25.114-.34q27.518-.376 55.037-.727 13.223-.167 26.444-.346c59.062-.8 118.114-.988 177.18-.929M2329 168a3725 3725 0 0 0-21.188 47.75l-1.075 2.473-1.087 2.498-2.197 5.052-1.108 2.548a8663 8663 0 0 1-13.401 30.6l-4.498 10.236a30671 30671 0 0 0-11.91 27.136l-5.45 12.422-1.017 2.32q-2.656 6.054-5.369 12.083l-1.129 2.514q-1.071 2.385-2.153 4.763c-1.785 3.657-1.785 3.657-2.418 7.605h175c0-3.143-.45-4.264-1.836-7l-1.21-2.406-1.329-2.594-1.378-2.72a1320 1320 0 0 0-10.152-19.516c-3.827-7.231-7.59-14.495-11.345-21.764l-4.855-9.398a10574 10574 0 0 0-24.284-46.753 2824 2824 0 0 1-8.306-16.025c-7.233-14.057-14.58-28.029-22.305-41.824z"/><path fill="#d4b58e" d="M3212 2250h102v312h123v93h-560v-93h335zm-1803 2h560v93h-335v312h-101v-312h-124zM664 127h102v175h55V127h102v325H821v-71h-55v194H664zm1945 3382h102v447h-102v-175h-55v175h-102v-324h102v71l54-1z"/><path fill="#d3b48d" d="M2159 1267h344v381h-344v-89l258-1v-200l-257-1c-13.417-26.834-1-59.998-1-90M872 2436h343v89l-257 1v200l257 1v90H872z"/><path fill="#d4b58e" d="M950 127h261v105l-180 1-1 236h181v106H950zm1213 3382h262v447h-261v-105h181v-237h-182zm-36-788h273l-1 302h-110v-219h-51v219h-111z"/><path fill="#d3b48d" d="M975 2976h111v219h51v-219h111a384645 384645 0 0 1 .055 128.546v2.727q.008 21.886.022 43.773.015 22.44.017 44.881.002 13.858.014 27.717.008 9.49.006 18.98-.002 5.483.005 10.967.007 5.931.001 11.862l.01 3.54-.007 3.183.001 2.77C1248 3277 1248 3277 1247 3278c-1.45.097-2.903.124-4.355.123l-2.867.006-3.186-.009-3.357.003q-5.612.001-11.225-.01l-8.01.001q-8.648 0-17.294-.008-12.502-.011-25.003-.012-20.28-.004-40.562-.019-19.707-.014-39.412-.02h-2.452l-12.179-.005q-50.55-.016-101.098-.05c-1.245-2.49-1.124-4.145-1.123-6.931l-.006-3.18.009-3.519-.003-3.717q-.001-5.124.007-10.248.005-5.52.002-11.039 0-9.568.008-19.136.011-13.835.012-27.668.004-22.444.019-44.887.014-21.806.02-43.611v-2.714l.005-13.478q.016-55.935.05-111.872"/><path fill="#d4b58e" d="M2160 1691h569v97h-569zm-33 435h570v96h-570zM678 1861h569c14.312 28.623 1 63.998 1 96H678zm-32 435h569v96H646zm28 1031h19l9.14 21.328 1 2.331 1.981 4.629c1.56 3.643 3.125 7.282 4.71 10.914l.853 1.963q1.138 2.613 2.28 5.223C714 3376 714 3376 714 3378l25-1c4.48-10.452 8.41-21.072 12.313-31.75l1.955-5.328q2.369-6.46 4.732-12.922h22v392H674z"/><path fill="#d3b48d" d="M3212 1656c3.712 1.485 6.906 2.968 10.36 4.906l3.103 1.738 3.287 1.856 3.414 1.92a1070 1070 0 0 1 20.251 11.69c6.312 3.743 12.664 7.414 19.023 11.078l3.304 1.904q6.958 4.01 13.918 8.014l9.045 5.209 5.107 2.938 3.122 1.798 2.751 1.583A115 115 0 0 1 3314 1714c.373 2.518.373 2.518.37 5.775l.017 3.748-.026 4.157q.002 2.193.008 4.385c.006 4.032-.006 8.064-.02 12.095-.014 4.343-.01 8.685-.007 13.027a9228 9228 0 0 1-.025 22.584c-.024 10.884-.032 21.768-.036 32.653q-.01 26.486-.055 52.972-.041 25.734-.061 51.469l-.003 3.202-.011 15.906c-.031 44.009-.086 88.018-.151 132.027h-102z"/><path fill="#d4b58e" d="M2595 364h105v393h-18l-9.14-21.328-1-2.331-1.981-4.629a1649 1649 0 0 0-4.71-10.914l-.853-1.963q-1.138-2.613-2.28-5.223C2661 708 2661 708 2661 706h-26l-3 10a527 527 0 0 1-3.54 9.691c-.325.872-.652 1.743-.988 2.64q-1.023 2.73-2.052 5.458-1.578 4.194-3.147 8.393-.998 2.661-2 5.322l-.95 2.54c-2.208 5.84-2.208 5.84-3.323 6.956h-21zM1533 2838h102l-1 412c-3.712-1.485-6.906-2.968-10.36-4.906l-3.103-1.738-3.287-1.856-3.414-1.92a1070 1070 0 0 1-20.251-11.69c-9.641-5.717-19.372-11.28-29.085-16.873a9634 9634 0 0 1-14.492-8.366q-3.455-1.994-6.908-3.992l-3.131-1.807-2.768-1.6A89 89 0 0 0 1533 3193zm625-1007h374v102h-374zM843 2151h373v102H843zM2158 477h372v102h-372zM845 3505h371v102H845z"/><path fill="#d3b48d" d="M1453 942h95v50h49c.481 20.442.481 20.442.586 29.225.071 5.97.155 11.937.32 17.906.13 4.817.202 9.633.233 14.452q.032 2.745.13 5.486c.3 8.745.493 15.838-5.47 22.713-2.487 2.552-5.11 4.879-7.799 7.218a115 115 0 0 0-3.562 4.063c-3.34 3.86-6.791 7.614-10.246 11.37A1595 1595 0 0 0 1558 1119a1727 1727 0 0 1-14.625 16.125c-2.997 3.259-5.974 6.53-8.875 9.875s-5.878 6.616-8.875 9.875A2140 2140 0 0 0 1515 1166.5l-2.125 2.344c-1.89 2.064-1.89 2.064-3.197 4.238-2.129 2.434-3.215 2.53-6.397 2.766-15.905.942-15.905.942-20.898-3.407-2.449-2.686-4.428-5.642-6.319-8.74-1.53-2.444-3.346-4.612-5.189-6.826l-1.934-2.437c-2.762-3.469-5.578-6.892-8.39-10.32-3.029-3.697-6.04-7.408-9.051-11.118a5476 5476 0 0 0-15.5-19l-4.5-5.5-2.25-2.75-6.75-8.25-2.234-2.73-4.657-5.696-2.359-2.887-2.11-2.582c-2.14-2.681-2.14-2.681-4.737-5.256-2.961-3.576-3.086-7.036-2.986-11.542l-.008-2.421c-.001-2.625.033-5.25.068-7.874q.01-2.742.014-5.483.016-5.73.077-11.46c.05-4.908.076-9.816.09-14.723q.025-7.011.069-14.022l.014-2.716q.026-3.78.066-7.562l.013-2.284c.065-5.147.065-5.147 1.18-6.262a70 70 0 0 1 4.52-.114h2.953c1.546.009 1.546.009 3.125.016l2.856.003c3.536.006 7.072.02 10.609.033L1453 992zm1901.965 1977.086c4.406.518 6.826 1.587 9.81 4.86a100 100 0 0 1 5 7.177c2.02 3.095 4.354 5.932 6.662 8.814l2.735 3.512c3.39 4.302 6.968 8.435 10.552 12.575a372 372 0 0 1 10.354 12.554c3.586 4.519 7.263 8.963 10.922 13.422l4.5 5.5 2.25 2.75 8.98 10.977 4.696 5.734 2.387 2.914 2.144 2.617L3438 3015l2.1 2.145c2.458 3.693 2.435 6.757 2.354 11.042l.002 2.455a746 746 0 0 1-.065 8.003 2451 2451 0 0 1-.116 20.174c-.049 5.849-.067 11.697-.09 17.546-.039 8.879-.116 17.756-.185 26.635h-48v50h-96v-50h-49c-.111-20.562-.111-20.562-.084-29.371.018-5.996.027-11.99-.022-17.986a948 948 0 0 1 0-14.51q.008-2.76-.03-5.52c-.215-16.197-.215-16.197 5.52-22.62A128 128 0 0 1 3259 3009a110 110 0 0 0 2.969-3.25l2.531-2.75c4.87-5.3 9.694-10.641 14.5-16a1985 1985 0 0 1 15.91-17.534c4.397-4.792 8.748-9.624 13.09-14.466a1929 1929 0 0 1 15.896-17.519c3.776-4.112 7.51-8.26 11.229-12.422L3337 2923l1.35-1.582c4.12-3.541 11.471-2.55 16.615-2.332"/><path fill="#d4b58e" d="M2158 1976h301v96h-301zm-1242 35h300v96H916zm1247 1660h118v125h-117zM1094 288h117v125h-117zm-69 2284h125v107h-125zm1200-1167h125v106h-125zM821 499h102v68H821zm568-215h67v102h-68zm1063 3233h102v67h-102zm425-1274h64v91h-64zm-236 668h63v92h-63zm-1970 85h63v91h-63zm1235-424h63v91h-63zm1392 622h96c-2 47-2 47-3 51h-93zM1455 850h94v51h-96c.515-17.005 1.056-34.013 2-51m1415-507h118v34h-118zM1859 3782h117v34h-117zM2870 280h118v33h-118zM1859 3719h117v34h-117zm710.263-535.123 3.058.003 3.498-.004 3.87.01h4.05q5.514.001 11.027.013 5.756.007 11.51.008 10.908.005 21.813.021 12.414.015 24.827.022 25.542.016 51.084.05v24h-138c0-23.946 0-23.946 3.263-24.123M1832 2845h137v24h-137zm1045-807h138v23h-138z"/><path fill="#d4b58e"/><path fill="#d4b58e"/><path fill="#d4b58e"/></svg>